C:\Users\r0593348\3dpredictsim\Results\batch_windlass\Pog_s1_tmt_bCst_d00_k1000_WL10_ig24_act_TTC_GRF.mot
nRows=25
nColumns=19

name C:\Users\r0593348\3dpredictsim\Results\batch_windlass\Pog_s1_tmt_bCst_d00_k1000_WL10_ig24_act_TTC_GRF.mot
datacolumns 19
datarows 25
range 0.0000000000 0.3012149183
endheader
time 	ground_force_vx	ground_force_vy	ground_force_vz	ground_force_px	ground_force_py	ground_force_pz	1_ground_force_vx	1_ground_force_vy	1_ground_force_vz	1_ground_force_px	1_ground_force_py	1_ground_force_pz	ground_torque_x	ground_torque_y	ground_torque_z	1_ground_torque_x	1_ground_torque_y	1_ground_torque_z
        0.0000000000	      -42.6001693815	       30.0425140915	        6.0319991407	        0.1698256810	        0.0000000000	        0.0625894187	      106.6096784951	      395.0777841791	        3.5964462397	       -0.3837446274	        0.0000000000	       -0.0327142950	        0.0000000000	        0.0000000000	        0.0000000000	        0.0000000000	        0.0000000000	        0.0000000000	
        0.0125506216	     -103.6954829947	       88.0209960191	       17.5584912029	        0.1836530854	        0.0000000000	        0.0611527501	       65.5314750519	      282.2549263975	       -8.8990277991	       -0.3721654242	        0.0000000000	       -0.0288134486	        0.0000000000	        0.0000000000	        0.0000000000	        0.0000000000	        0.0000000000	        0.0000000000	
        0.0251012432	     -140.4275532485	      248.7770323372	       20.3417645617	        0.1993035813	        0.0000000000	        0.0614334805	       47.1299608850	      225.2090012830	      -17.9453069084	       -0.3663787361	        0.0000000000	       -0.0268206544	        0.0000000000	        0.0000000000	        0.0000000000	        0.0000000000	        0.0000000000	        0.0000000000	
        0.0376518648	     -107.6556666225	      600.8057043537	      -19.0467243280	        0.2137264328	        0.0000000000	        0.0626740273	       43.1659803983	      179.9195098595	      -18.6120388756	       -0.3662049591	        0.0000000000	       -0.0269255934	        0.0000000000	        0.0000000000	        0.0000000000	        0.0000000000	        0.0000000000	        0.0000000000	
        0.0502024864	     -157.9866240706	      874.4375060692	      -31.1472689129	        0.2259763248	        0.0000000000	        0.0625589613	       29.6145940860	      118.8975419843	      -16.9189836367	       -0.3662172191	        0.0000000000	       -0.0270979113	        0.0000000000	        0.0000000000	        0.0000000000	        0.0000000000	        0.0000000000	        0.0000000000	
        0.0627531080	     -200.6755567173	     1017.7493566425	      -30.7301883841	        0.2398222488	        0.0000000000	        0.0605320768	        3.1089873541	       42.9684327978	       -8.8389819198	       -0.3677787587	        0.0000000000	       -0.0273205738	        0.0000000000	        0.0000000000	        0.0000000000	        0.0000000000	        0.0000000000	        0.0000000000	
        0.0753037296	     -191.5093692526	      977.3992260925	      -23.4289427238	        0.2492196873	        0.0000000000	        0.0587091261	        1.0754879783	       -1.0461018165	       -0.0439246670	        0.0000000000	        0.0000000000	        0.0000000000	        0.0000000000	        0.0000000000	        0.0000000000	        0.0000000000	        0.0000000000	        0.0000000000	
        0.0878543512	     -156.1377899165	      854.3399100298	      -19.6704287873	        0.2529614204	        0.0000000000	        0.0578302379	        0.0621749372	       -0.0520347284	       -0.0054342814	        0.0000000000	        0.0000000000	        0.0000000000	        0.0000000000	        0.0000000000	        0.0000000000	        0.0000000000	        0.0000000000	        0.0000000000	
        0.1004049728	     -133.0162398237	      771.8502026961	      -16.0506598846	        0.2561639526	        0.0000000000	        0.0573616495	       -1.0689083086	        0.7890224374	        0.0982113948	        0.0000000000	        0.0000000000	        0.0000000000	        0.0000000000	        0.0000000000	        0.0000000000	        0.0000000000	        0.0000000000	        0.0000000000	
        0.1129555944	     -114.3550311004	      728.9848550841	      -15.4492091155	        0.2593595251	        0.0000000000	        0.0570354804	        0.1031945856	       -0.0701479696	       -0.0085110938	        0.0000000000	        0.0000000000	        0.0000000000	        0.0000000000	        0.0000000000	        0.0000000000	        0.0000000000	        0.0000000000	        0.0000000000	
        0.1255062160	      -99.0829799335	      698.6736479265	      -15.1071334798	        0.2625475158	        0.0000000000	        0.0567842069	        0.0540293211	       -0.0346104171	       -0.0035002247	        0.0000000000	        0.0000000000	        0.0000000000	        0.0000000000	        0.0000000000	        0.0000000000	        0.0000000000	        0.0000000000	        0.0000000000	
        0.1380568376	      -84.6380910538	      675.3779341538	      -15.3106380854	        0.2655641923	        0.0000000000	        0.0566155183	        0.0083081241	       -0.0051107875	       -0.0004223254	        0.0000000000	        0.0000000000	        0.0000000000	        0.0000000000	        0.0000000000	        0.0000000000	        0.0000000000	        0.0000000000	        0.0000000000	
        0.1506074592	      -70.6766922230	      656.9933990763	      -16.6860823603	        0.2697755808	        0.0000000000	        0.0563243898	       -0.0101705545	        0.0060850697	        0.0003190514	        0.0000000000	        0.0000000000	        0.0000000000	        0.0000000000	        0.0000000000	        0.0000000000	        0.0000000000	        0.0000000000	        0.0000000000	
        0.1631580808	      -60.6254304509	      641.8417317423	      -17.8525277129	        0.2755132061	        0.0000000000	        0.0557988467	       -0.0113671932	        0.0064543946	        0.0003717696	        0.0000000000	        0.0000000000	        0.0000000000	        0.0000000000	        0.0000000000	        0.0000000000	        0.0000000000	        0.0000000000	        0.0000000000	
        0.1757087023	      -53.2401188607	      630.0088196652	      -18.9883768511	        0.2820863755	        0.0000000000	        0.0551007898	       -0.0059358103	        0.0031470366	        0.0002623693	        0.0000000000	        0.0000000000	        0.0000000000	        0.0000000000	        0.0000000000	        0.0000000000	        0.0000000000	        0.0000000000	        0.0000000000	
        0.1882593239	      -47.5505447967	      620.2519236142	      -19.3766630618	        0.2889377313	        0.0000000000	        0.0543176557	       -0.0035989484	        0.0017808314	        0.0002062357	        0.0000000000	        0.0000000000	        0.0000000000	        0.0000000000	        0.0000000000	        0.0000000000	        0.0000000000	        0.0000000000	        0.0000000000	
        0.2008099455	      -42.4413107494	      611.7925767943	      -19.0805282034	        0.2957723760	        0.0000000000	        0.0535035027	       -0.0029422497	        0.0013738874	        0.0001939089	        0.0000000000	        0.0000000000	        0.0000000000	        0.0000000000	        0.0000000000	        0.0000000000	        0.0000000000	        0.0000000000	        0.0000000000	
        0.2133605671	      -37.8396936962	      604.0697125731	      -18.3070313247	        0.3024304383	        0.0000000000	        0.0526813909	       -0.0032606933	        0.0014574449	        0.0002228112	        0.0000000000	        0.0000000000	        0.0000000000	        0.0000000000	        0.0000000000	        0.0000000000	        0.0000000000	        0.0000000000	        0.0000000000	
        0.2259111887	      -33.5734825946	      596.1287012988	      -17.4939562202	        0.3088099469	        0.0000000000	        0.0518677661	       -0.0046600320	        0.0020170467	        0.0003083031	        0.0000000000	        0.0000000000	        0.0000000000	        0.0000000000	        0.0000000000	        0.0000000000	        0.0000000000	        0.0000000000	        0.0000000000	
        0.2384618103	      -30.7054357332	      589.3764977034	      -16.8673265686	        0.3148361107	        0.0000000000	        0.0510767551	       -0.0080349029	        0.0033940653	        0.0004925678	        0.0000000000	        0.0000000000	        0.0000000000	        0.0000000000	        0.0000000000	        0.0000000000	        0.0000000000	        0.0000000000	        0.0000000000	
        0.2510124319	      -27.7617374446	      583.8820685492	      -16.6451062629	        0.3204674686	        0.0000000000	        0.0503238590	       -0.0159611519	        0.0066077952	        0.0008843194	        0.0000000000	        0.0000000000	        0.0000000000	        0.0000000000	        0.0000000000	        0.0000000000	        0.0000000000	        0.0000000000	        0.0000000000	
        0.2635630535	      -24.5961495690	      578.8126752279	      -16.8619091842	        0.3258338087	        0.0000000000	        0.0495820781	       -0.0347351972	        0.0141270686	        0.0017240778	        0.0000000000	        0.0000000000	        0.0000000000	        0.0000000000	        0.0000000000	        0.0000000000	        0.0000000000	        0.0000000000	        0.0000000000	
        0.2761136751	      -21.3580100485	      573.9309290380	      -17.2503099442	        0.3309348167	        0.0000000000	        0.0488520535	       -0.0777624421	        0.0311250975	        0.0034457527	        0.0000000000	        0.0000000000	        0.0000000000	        0.0000000000	        0.0000000000	        0.0000000000	        0.0000000000	        0.0000000000	        0.0000000000	
        0.2886642967	      -18.0858552507	      569.0250018634	      -17.6961997002	        0.3357331520	        0.0000000000	        0.0481410752	       -0.1680126907	        0.0662883252	        0.0066483238	        0.0000000000	        0.0000000000	        0.0000000000	        0.0000000000	        0.0000000000	        0.0000000000	        0.0000000000	        0.0000000000	        0.0000000000	
        0.3012149183	      -14.8348079487	      564.2684632450	      -18.1532725342	        0.3401520799	        0.0000000000	        0.0474655431	       -0.3304363559	        0.1287970547	        0.0116094462	        0.0000000000	        0.0000000000	        0.0000000000	        0.0000000000	        0.0000000000	        0.0000000000	        0.0000000000	        0.0000000000	        0.0000000000	
